<svg xmlns="http://www.w3.org/2000/svg" viewBox="0 0 210.15 299.57"><title>FC-Asset 8</title><g id="Layer_2" data-name="Layer 2"><g id="Layer_1-2" data-name="Layer 1"><path id="FC-red" d="M181.31,150.61h0a2.1,2.1,0,0,0,2.06,0l19.35-11.17h0a14.92,14.92,0,0,0,7.43-12.87V111.63a14.92,14.92,0,0,0-7.44-12.89L138.24,61.49a14.86,14.86,0,0,0-14.82,0l-16.9,9.76a14.92,14.92,0,0,0,.61-4.17v-15a14.9,14.9,0,0,0-7.42-12.85L35.26,2a15,15,0,0,0-14.9,0L1,13.15a2,2,0,0,0-1,1.78V194.57l26.78,15.49h0a2.09,2.09,0,0,0,1,.27,2,2,0,0,0,1-.27l19.38-11.19h0a14.83,14.83,0,0,0,7.4-12.82V167.23l22.68,13.14h0a2.09,2.09,0,0,0,1,.27,2,2,0,0,0,1-.27l19.32-11.15a14.86,14.86,0,0,0,3.36-2.67V254l78.22,45.21.07.05a2.09,2.09,0,0,0,1,.27,2.11,2.11,0,0,0,1-.27l19.36-11.18a14.86,14.86,0,0,0,7.42-12.84v-15a14.83,14.83,0,0,0-7.4-12.81L164,225.08a10.81,10.81,0,0,1-5.37-9.32V137.51ZM48,158.11A14.86,14.86,0,0,0,25.76,171v33.76L4.1,192.2V18.48L71.89,57.63a10.78,10.78,0,0,1,5.38,9.31V85.76L54.59,72.68h0l-6.5-3.75a14.89,14.89,0,0,0-22.33,12.9v29.89a14.85,14.85,0,0,0,7.41,12.84L71.9,146.92a10.76,10.76,0,0,1,5.37,9.3V175L54.59,161.9h0ZM99.69,128.5,61,106.16a10.84,10.84,0,0,1-5.4-9.35V78L78.29,91.08h0a2,2,0,0,0,1,.28,2,2,0,0,0,1-.28L99.73,79.89A14.87,14.87,0,0,0,103,77.3v53.84A14.79,14.79,0,0,0,99.69,128.5Zm75.24,137.36a10.74,10.74,0,0,1,5.36,9.28V294l-73.16-42.28V78l67.77,39.15a10.81,10.81,0,0,1,5.39,9.32v18.81l-22.68-13.1h0l-6.51-3.76a14.88,14.88,0,0,0-22.32,12.89v89.3a14.94,14.94,0,0,0,7.44,12.9Z" style="fill:#d02128"/></g></g></svg>