<svg xmlns="http://www.w3.org/2000/svg" viewBox="0 0 450.14 299.57"><title>FC-Asset 1</title><g id="Layer_2" data-name="Layer 2"><g id="Layer_1-2" data-name="Layer 1"><path id="FC-red-horizontal" d="M446,262.77a18.24,18.24,0,0,0-6.94-4.11c3.06-1.06,5.18-2.12,6.94-4.82,2.47-3.76,2.94-8.47,2.94-12.82,0-11.63-3.65-20.92-16.81-20.92H417.8v78.42h13.88c14,0,18.46-8.82,18.46-21.52C450.14,272.18,449.43,266.42,446,262.77ZM427.8,228.68h1.76c7.29,0,9.17,6.23,9.17,12.34,0,7.65-1.17,13.64-10.23,13.64h-.7Zm6.58,59.84c-2,.94-4.35.94-6.58.94V263c9.64,0,11.4,5.06,11.4,13.64C439.2,280.76,438.73,286.52,434.38,288.52ZM277.2,159.42h16v-8.93h-16V125.68h17.63v-8.94H266.62v78.42H277.2Zm150.36,35.74H437.9V126h12v-9.29H415.56V126h12Zm-162.47,65.5c0,16.11,2.82,38.91,23.75,38.91a13.9,13.9,0,0,0,8.58-2.23V287.7a12.85,12.85,0,0,1-6.23,1.53c-14.11,0-14.93-18.93-14.93-29.16,0-10,.11-31.16,14.34-31.16a14,14,0,0,1,6.82,2v-9.52A15.59,15.59,0,0,0,288.6,219C267.09,219,265.09,244.55,265.09,260.66ZM363.14,157v-3H344v8.93h9.17v5.76c0,6.35-.23,17.76-9.05,17.76-5.64,0-7.17-4-8.11-8.82-1.3-7.06-1.41-14.35-1.41-21.52,0-6,.23-22,2.82-26.8,1.53-2.83,3.05-4.12,6.35-4.12,6.58,0,8,5.53,9.05,10.82l9.88-4.12c-2.94-10.11-7.65-16-18.82-16-8.93,0-14.81,4.35-17.4,12.82-2.58,8.7-2.82,18.69-2.82,27.74a126.43,126.43,0,0,0,1.18,18.82c1.88,11.64,6.11,21,19.51,21,8.7,0,14.23-4.35,16.58-12.7S363.14,165.54,363.14,157Zm22.22,120.76c0,5.87.23,11.87-7.53,11.87-7.4,0-7.87-6.11-7.87-11.87V220.1H359.61v58c0,12.58,3.53,21.51,17.87,21.51,15.28,0,18.22-8.34,18.22-21.86V220.1H385.36Zm14.1-130.28H383.94V116.74H373.36v78.42h10.58v-38.8h15.52v38.8H410V116.74H399.46Zm-96.75,47.73h10.58V116.74H302.71Zm24.22,24.94H316.34v78.42h27.87v-8.94H326.93ZM202.71,98.74,138.24,61.49a14.86,14.86,0,0,0-14.82,0l-16.9,9.76a14.92,14.92,0,0,0,.61-4.17v-15a14.9,14.9,0,0,0-7.42-12.85L35.26,2a15,15,0,0,0-14.9,0L1,13.15a2,2,0,0,0-1,1.78V194.57l26.78,15.49h0a2.09,2.09,0,0,0,1,.27,2,2,0,0,0,1-.27l19.38-11.19h0a14.83,14.83,0,0,0,7.4-12.82V167.23l22.68,13.14h0a2.09,2.09,0,0,0,1,.27,2,2,0,0,0,1-.27l19.32-11.15a14.86,14.86,0,0,0,3.36-2.67V254l78.22,45.21.07.05a2.09,2.09,0,0,0,1,.27,2.11,2.11,0,0,0,1-.27l19.36-11.18a14.86,14.86,0,0,0,7.42-12.84v-15a14.83,14.83,0,0,0-7.4-12.81L164,225.08a10.81,10.81,0,0,1-5.37-9.32V137.51l22.67,13.1h0a2.09,2.09,0,0,0,1,.27,2.11,2.11,0,0,0,1-.27l19.35-11.17h0a14.92,14.92,0,0,0,7.43-12.87V111.63A14.92,14.92,0,0,0,202.71,98.74ZM77.27,175,54.59,161.9h0L48,158.11A14.86,14.86,0,0,0,25.76,171v33.76L4.1,192.2V18.48L71.89,57.63a10.78,10.78,0,0,1,5.38,9.31V85.76L54.59,72.68h0l-6.5-3.75a14.89,14.89,0,0,0-22.33,12.9v29.89a14.85,14.85,0,0,0,7.41,12.84L71.9,146.92a10.76,10.76,0,0,1,5.37,9.3ZM99.69,128.5,61,106.16a10.84,10.84,0,0,1-5.4-9.35V78L78.29,91.08h0a2,2,0,0,0,1,.28,2,2,0,0,0,1-.28L99.73,79.89A14.87,14.87,0,0,0,103,77.3v53.84A14.79,14.79,0,0,0,99.69,128.5Zm80.6,16.78-22.68-13.1h0l-6.51-3.76a14.88,14.88,0,0,0-22.32,12.89v89.3a14.94,14.94,0,0,0,7.44,12.9l38.71,22.35a10.74,10.74,0,0,1,5.36,9.28V294l-73.16-42.28V78l67.77,39.15a10.81,10.81,0,0,1,5.39,9.32Z" style="fill:#d02128"/></g></g></svg>